<svg width="20" height="20" viewBox="0 0 20 20" fill="none" xmlns="http://www.w3.org/2000/svg">
<path d="M14 10L10 2.5L6 10L2 6L3 15.5C8.2 19.1 14.5 17 17 15.5L17.5 6L14 10Z" fill="#515151"/>
<path d="M17.9514 5.62561C17.4094 5.40833 16.8107 5.57556 16.4609 6.04309L14.307 8.91479L11.135 2.65442C10.9171 2.22473 10.4825 1.95801 10.0003 1.95801C9.51817 1.95801 9.0836 2.22473 8.86632 2.65442L5.69371 8.91479L3.53978 6.04309C3.19005 5.57617 2.59007 5.40833 2.0493 5.62561C1.50731 5.8429 1.18992 6.37817 1.2595 6.9574L2.14085 14.3024C2.28306 15.484 3.046 16.4807 4.13182 16.9025C6.07884 17.6599 8.03929 18.0383 10.0003 18.0383C11.9608 18.0383 13.9219 17.6593 15.8689 16.9025C16.9547 16.4807 17.7176 15.484 17.8598 14.3024L18.7412 6.9574C18.8108 6.37817 18.4934 5.8429 17.9514 5.62561ZM4.5847 15.7379C3.92979 15.4828 3.46898 14.8761 3.38231 14.1534L2.52904 6.7804C2.52904 6.7804 2.5327 6.78345 2.54002 6.7926L5.29698 10.4688C5.42637 10.6421 5.63695 10.7373 5.85118 10.7166C6.06663 10.6976 6.25645 10.5695 6.35411 10.3766L10.0199 3.2196L13.6466 10.3766C13.7442 10.5695 13.9341 10.6976 14.1495 10.7166C14.3644 10.7379 14.5743 10.6427 14.7037 10.4688L17.4997 6.80847L16.6184 14.1534C16.5317 14.8761 16.0709 15.4828 15.416 15.7379C11.8222 17.1344 8.17845 17.1344 4.5847 15.7379Z" fill="white"/>
</svg>
