<svg width="20" height="20" viewBox="0 0 20 20" fill="none" xmlns="http://www.w3.org/2000/svg">
<path d="M14.9765 3.60797H5.65002L2.81152 7.25671L10.1105 16.9867L17.4095 7.25671L14.9765 3.60797Z" fill="#5A9BC0"/>
<path d="M15.0896 3C14.5735 3 5.70021 3 5.13128 3L2 7.26902L10.1436 18L18.22 7.26779L15.0896 3ZM6.45198 7.73802L8.74635 14.5911L3.54561 7.73802H6.45198ZM7.4515 7.73802H12.7722L10.1301 15.7389L7.4515 7.73802ZM13.7704 7.73802H16.68L11.4951 14.628L13.7704 7.73802ZM14.6093 3.9476L16.6944 6.79042H13.771L12.838 3.9476H14.6093ZM11.8405 3.9476L12.7735 6.79042H7.44739L8.38037 3.9476H11.8405ZM5.61156 3.9476H7.38281L6.44983 6.79042H3.5264L5.61156 3.9476Z" fill="#8AC8EB"/>
</svg>
