<svg width="12" height="12" viewBox="0 0 12 12" fill="none" xmlns="http://www.w3.org/2000/svg">
<path fill-rule="evenodd" clip-rule="evenodd" d="M7.25724 5.96539L10.2572 2.94231C10.3957 2.80385 10.3957 2.59616 10.2572 2.4577L9.7957 1.97308C9.65724 1.83462 9.44955 1.83462 9.31109 1.97308L6.28801 4.99616C6.1957 5.08847 6.05724 5.08847 5.96493 4.99616L2.94186 1.95001C2.8034 1.81155 2.5957 1.81155 2.45724 1.95001L1.97263 2.43462C1.83416 2.57308 1.83416 2.78078 1.97263 2.91924L4.9957 5.94231C5.08801 6.03462 5.08801 6.17308 4.9957 6.26539L1.94955 9.31154C1.81109 9.45001 1.81109 9.6577 1.94955 9.79616L2.43416 10.2808C2.57263 10.4192 2.78032 10.4192 2.91878 10.2808L5.94186 7.2577C6.03416 7.16539 6.17263 7.16539 6.26493 7.2577L9.28801 10.2808C9.42647 10.4192 9.63416 10.4192 9.77263 10.2808L10.2572 9.79616C10.3957 9.6577 10.3957 9.45001 10.2572 9.31154L7.25724 6.28847C7.16493 6.19616 7.16493 6.0577 7.25724 5.96539Z" fill="white"/>
</svg>
