<svg width="19" height="23" viewBox="0 0 19 23" fill="none" xmlns="http://www.w3.org/2000/svg">
<path d="M14.7125 0.416275C14.5572 0.830212 14.8332 0.985438 15.7818 1.05443L16.6269 1.10617L14.8332 2.69293C13.2637 4.08996 13.005 4.26244 12.7808 4.05547C12.1599 3.5208 10.9008 3.03787 9.91769 2.96888C7.89975 2.81366 5.93355 3.98648 5.03669 5.88369C4.70899 6.59083 4.57101 6.71156 4.17432 6.71156C3.41544 6.71156 1.96666 7.52219 1.22502 8.36731C-0.258249 10.0575 -0.413476 12.6619 0.862829 14.5246C1.41474 15.3352 2.63931 16.1976 3.62241 16.4908L4.48477 16.7495V18.0948V19.4574L3.67415 19.5091C2.98425 19.5608 2.84628 19.6126 2.84628 19.9058C2.84628 20.199 2.98425 20.2507 3.67415 20.3025L4.48477 20.3542V21.0959C4.48477 21.5615 4.58826 21.9237 4.74349 22.0617C5.15742 22.4067 5.51962 21.9755 5.51962 21.0959V20.3542L6.34749 20.3025C7.02014 20.2507 7.15812 20.199 7.15812 19.9058C7.15812 19.6126 7.02014 19.5608 6.34749 19.5091L5.51962 19.4574V18.0948V16.7323L6.46822 16.4563C7.79627 16.0769 8.81386 15.18 9.57275 13.7312C9.91769 13.0931 10.1074 12.9206 10.4351 12.9206C11.0043 12.9206 12.1943 12.3514 12.9705 11.7133C14.5227 10.437 15.0402 7.7809 14.1433 5.84919L13.7121 4.93508L14.5745 4.1762C15.0574 3.76226 15.8853 3.02063 16.4199 2.55495L17.403 1.69258L17.4548 2.69293C17.5065 3.5553 17.5583 3.69327 17.8515 3.69327C18.1792 3.69327 18.1964 3.57254 18.1964 1.96854V0.243802L16.5062 0.19206C15.0919 0.157565 14.8159 0.19206 14.7125 0.416275ZM11.3665 4.26244C12.7463 4.90059 13.6604 6.33212 13.6776 7.90163C13.6949 9.90232 12.4358 11.4891 10.4351 11.9893C10.0384 12.0927 10.0039 12.0582 10.0039 11.4201C10.0039 10.3852 9.53825 9.22968 8.77937 8.36731C8.12397 7.62567 6.6062 6.71156 6.01979 6.71156C5.58861 6.71156 5.77833 6.17689 6.50272 5.33177C7.74453 3.88299 9.62449 3.46906 11.3665 4.26244ZM4.58826 8.38456C4.86422 10.368 6.17502 12.0755 7.917 12.6791C8.39993 12.8516 8.79661 13.0931 8.79661 13.1966C8.79661 13.5415 7.79627 14.7661 7.20986 15.1283C4.19157 16.991 0.414398 14.4729 0.931818 10.9372C1.13879 9.62637 2.27711 8.28107 3.60516 7.81539C4.48477 7.50494 4.45028 7.48769 4.58826 8.38456ZM6.91665 8.02236C7.52031 8.33281 8.39993 9.21243 8.72763 9.85058C9.10707 10.5922 9.26229 12.0582 8.95184 12.0582C8.52066 12.0582 7.00289 11.2476 6.6062 10.8337C6.05428 10.23 5.51962 8.95372 5.51962 8.21208C5.51962 7.59118 5.53686 7.57393 6.00254 7.67741C6.26125 7.7464 6.67519 7.90163 6.91665 8.02236Z" fill="#979797"/>
</svg>
