<svg width="16" height="20" viewBox="0 0 16 20" fill="none" xmlns="http://www.w3.org/2000/svg">
<path d="M13 7.23125H12.6687V5.29375C12.6687 4.05552 12.1769 2.86801 11.3013 1.99245C10.4257 1.11688 9.23823 0.625 8 0.625C6.76177 0.625 5.57426 1.11688 4.6987 1.99245C3.82313 2.86801 3.33125 4.05552 3.33125 5.29375V7.23125H3C2.33696 7.23125 1.70107 7.49464 1.23223 7.96348C0.763392 8.43232 0.5 9.06821 0.5 9.73125V16.875C0.5 17.538 0.763392 18.1739 1.23223 18.6428C1.70107 19.1116 2.33696 19.375 3 19.375H13C13.663 19.375 14.2989 19.1116 14.7678 18.6428C15.2366 18.1739 15.5 17.538 15.5 16.875V9.73125C15.5 9.06821 15.2366 8.43232 14.7678 7.96348C14.2989 7.49464 13.663 7.23125 13 7.23125ZM4.58125 5.29375C4.58125 4.84479 4.66968 4.40023 4.84149 3.98545C5.0133 3.57067 5.26512 3.19379 5.58258 2.87633C5.90004 2.55887 6.27692 2.30704 6.6917 2.13524C7.10648 1.96343 7.55104 1.875 8 1.875C8.44896 1.875 8.89352 1.96343 9.3083 2.13524C9.72308 2.30704 10.1 2.55887 10.4174 2.87633C10.7349 3.19379 10.9867 3.57067 11.1585 3.98545C11.3303 4.40023 11.4187 4.84479 11.4187 5.29375V7.23125H4.58125V5.29375ZM14.25 16.875C14.25 17.2065 14.1183 17.5245 13.8839 17.7589C13.6495 17.9933 13.3315 18.125 13 18.125H3C2.66848 18.125 2.35054 17.9933 2.11612 17.7589C1.8817 17.5245 1.75 17.2065 1.75 16.875V9.73125C1.75 9.39973 1.8817 9.08179 2.11612 8.84737C2.35054 8.61295 2.66848 8.48125 3 8.48125H13C13.3315 8.48125 13.6495 8.61295 13.8839 8.84737C14.1183 9.08179 14.25 9.39973 14.25 9.73125V16.875Z" fill="#979797"/>
<path d="M8.00038 11.2037C7.7579 11.2038 7.52096 11.2763 7.31992 11.4119C7.11889 11.5474 6.96292 11.74 6.87201 11.9648C6.7811 12.1896 6.75938 12.4364 6.80965 12.6736C6.85991 12.9108 6.97986 13.1276 7.15413 13.2962V14.7781C7.15413 14.9439 7.21998 15.1028 7.33719 15.2201C7.4544 15.3373 7.61337 15.4031 7.77913 15.4031H8.22163C8.38739 15.4031 8.54637 15.3373 8.66358 15.2201C8.78079 15.1028 8.84663 14.9439 8.84663 14.7781V13.2962C9.0209 13.1276 9.14086 12.9108 9.19112 12.6736C9.24138 12.4364 9.21967 12.1896 9.12876 11.9648C9.03784 11.74 8.88188 11.5474 8.68084 11.4119C8.47981 11.2763 8.24287 11.2038 8.00038 11.2037Z" fill="#979797"/>
</svg>
