<svg width="70" height="21" viewBox="0 0 70 21" fill="none" xmlns="http://www.w3.org/2000/svg">
<rect width="70" height="21" rx="10.5" fill="url(#paint0_linear_198_3863)"/>
<path d="M10.882 15V5.984H14.9C15.5907 5.984 16.16 6.11467 16.608 6.376C17.056 6.63733 17.3873 6.99667 17.602 7.454C17.8167 7.902 17.924 8.41533 17.924 8.994C17.924 9.89 17.644 10.6087 17.084 11.15C16.5333 11.6913 15.7867 11.962 14.844 11.962H12.408V15H10.882ZM12.408 10.758H14.564C15.1707 10.758 15.628 10.5993 15.936 10.282C16.244 9.96467 16.398 9.53533 16.398 8.994C16.398 8.41533 16.2487 7.96733 15.95 7.65C15.6607 7.33267 15.222 7.174 14.634 7.174H12.408V10.758ZM22.3178 15.14C21.1231 15.14 20.2458 14.8413 19.6858 14.244C19.1351 13.6467 18.8598 12.7927 18.8598 11.682C18.8598 10.5713 19.1398 9.71733 19.6998 9.12C20.2598 8.52267 21.1325 8.224 22.3178 8.224C23.5125 8.224 24.3898 8.52267 24.9498 9.12C25.5098 9.71733 25.7898 10.5713 25.7898 11.682C25.7898 12.7927 25.5098 13.6467 24.9498 14.244C24.3991 14.8413 23.5218 15.14 22.3178 15.14ZM22.3178 13.852C23.0178 13.852 23.5125 13.684 23.8018 13.348C24.1005 13.0027 24.2498 12.4473 24.2498 11.682C24.2498 10.9167 24.1005 10.366 23.8018 10.03C23.5125 9.694 23.0178 9.526 22.3178 9.526C21.6271 9.526 21.1325 9.694 20.8338 10.03C20.5445 10.366 20.3998 10.9167 20.3998 11.682C20.3998 12.4473 20.5445 13.0027 20.8338 13.348C21.1325 13.684 21.6271 13.852 22.3178 13.852ZM27.2746 18.024V8.364H28.5906L28.6746 9.022C28.9732 8.75133 29.2999 8.55067 29.6546 8.42C30.0092 8.28933 30.4292 8.224 30.9146 8.224C31.8666 8.224 32.6086 8.48533 33.1406 9.008C33.6726 9.52133 33.9386 10.3753 33.9386 11.57C33.9386 12.7647 33.6632 13.6607 33.1126 14.258C32.5619 14.846 31.8106 15.14 30.8586 15.14C30.0559 15.14 29.3699 14.9533 28.8006 14.58V18.024H27.2746ZM30.4666 13.992C31.7546 13.992 32.3986 13.18 32.3986 11.556C32.3986 10.772 32.2539 10.2167 31.9646 9.89C31.6752 9.554 31.1899 9.386 30.5086 9.386C29.8272 9.386 29.2579 9.61933 28.8006 10.086V13.404C29.0152 13.5813 29.2532 13.726 29.5146 13.838C29.7852 13.9407 30.1026 13.992 30.4666 13.992ZM37.817 15.14C37.0237 15.14 36.4123 14.9207 35.983 14.482C35.563 14.0433 35.353 13.3993 35.353 12.55V8.364H36.879V12.55C36.879 13.0447 37.0003 13.4087 37.243 13.642C37.4857 13.8753 37.859 13.992 38.363 13.992C38.7363 13.992 39.0817 13.922 39.399 13.782C39.7163 13.642 39.9917 13.4553 40.225 13.222V8.364H41.737V15H40.351L40.281 14.314C39.9823 14.5473 39.6277 14.7433 39.217 14.902C38.8063 15.0607 38.3397 15.14 37.817 15.14ZM45.1688 15.14C44.6274 15.14 44.2168 15.0093 43.9368 14.748C43.6568 14.4773 43.5168 14.034 43.5168 13.418V5.564H45.0428V13.278C45.0428 13.5393 45.0894 13.7167 45.1828 13.81C45.2761 13.9033 45.4161 13.95 45.6028 13.95C45.8268 13.95 46.0414 13.922 46.2468 13.866V14.972C46.0694 15.0373 45.8968 15.0793 45.7288 15.098C45.5701 15.126 45.3834 15.14 45.1688 15.14ZM49.5126 15.14C49.0926 15.14 48.7006 15.0653 48.3366 14.916C47.9819 14.7667 47.6973 14.5427 47.4826 14.244C47.2679 13.936 47.1606 13.558 47.1606 13.11C47.1606 12.4753 47.3753 11.9667 47.8046 11.584C48.2433 11.192 48.9153 10.996 49.8206 10.996H51.9486V10.702C51.9486 10.3847 51.8973 10.1327 51.7946 9.946C51.7013 9.75933 51.5239 9.624 51.2626 9.54C51.0106 9.456 50.6373 9.414 50.1426 9.414C49.3586 9.414 48.6259 9.53067 47.9446 9.764V8.63C48.2433 8.50867 48.6073 8.41067 49.0366 8.336C49.4659 8.26133 49.9279 8.224 50.4226 8.224C51.3933 8.224 52.1306 8.42 52.6346 8.812C53.1479 9.204 53.4046 9.84333 53.4046 10.73V15H52.1026L52.0046 14.328C51.7339 14.5893 51.3979 14.79 50.9966 14.93C50.6046 15.07 50.1099 15.14 49.5126 15.14ZM49.9186 14.048C50.3759 14.048 50.7726 13.9733 51.1086 13.824C51.4539 13.6653 51.7339 13.4553 51.9486 13.194V12.032H49.8486C49.4006 12.032 49.0739 12.1207 48.8686 12.298C48.6726 12.466 48.5746 12.7273 48.5746 13.082C48.5746 13.4273 48.6913 13.6747 48.9246 13.824C49.1579 13.9733 49.4893 14.048 49.9186 14.048ZM55.0968 15V8.364H56.4968L56.5808 9.134C56.8982 8.92867 57.2762 8.742 57.7148 8.574C58.1535 8.406 58.5875 8.28933 59.0168 8.224V9.386C58.7555 9.43267 58.4708 9.50267 58.1628 9.596C57.8642 9.68 57.5795 9.778 57.3088 9.89C57.0382 9.99267 56.8095 10.1 56.6228 10.212V15H55.0968Z" fill="#131313"/>
<defs>
<linearGradient id="paint0_linear_198_3863" x1="4.0692" y1="2.08134" x2="53.9297" y2="8.23656" gradientUnits="userSpaceOnUse">
<stop stop-color="#3894C9"/>
<stop offset="1" stop-color="#E970C7"/>
</linearGradient>
</defs>
</svg>
