<svg width="20" height="20" viewBox="0 0 20 20" fill="none" xmlns="http://www.w3.org/2000/svg">
<mask id="path-1-inside-1_1912_6895" fill="white">
<path fill-rule="evenodd" clip-rule="evenodd" d="M10.1592 1.25C7.7448 1.25 5.78418 3.21063 5.78418 5.625C5.78418 8.03937 7.7448 10 10.1592 10C12.5736 10 14.5342 8.03937 14.5342 5.625C14.5342 3.21063 12.5736 1.25 10.1592 1.25ZM10.1592 2.5C11.8842 2.5 13.2842 3.9 13.2842 5.625C13.2842 7.35 11.8842 8.75 10.1592 8.75C8.43418 8.75 7.03418 7.35 7.03418 5.625C7.03418 3.9 8.43418 2.5 10.1592 2.5Z"/>
</mask>
<path fill-rule="evenodd" clip-rule="evenodd" d="M10.1592 1.25C7.7448 1.25 5.78418 3.21063 5.78418 5.625C5.78418 8.03937 7.7448 10 10.1592 10C12.5736 10 14.5342 8.03937 14.5342 5.625C14.5342 3.21063 12.5736 1.25 10.1592 1.25ZM10.1592 2.5C11.8842 2.5 13.2842 3.9 13.2842 5.625C13.2842 7.35 11.8842 8.75 10.1592 8.75C8.43418 8.75 7.03418 7.35 7.03418 5.625C7.03418 3.9 8.43418 2.5 10.1592 2.5Z" fill="#979797"/>
<path d="M10.1592 -0.25C6.91638 -0.25 4.28418 2.3822 4.28418 5.625H7.28418C7.28418 4.03905 8.57323 2.75 10.1592 2.75V-0.25ZM4.28418 5.625C4.28418 8.8678 6.91638 11.5 10.1592 11.5V8.5C8.57323 8.5 7.28418 7.21095 7.28418 5.625H4.28418ZM10.1592 11.5C13.402 11.5 16.0342 8.8678 16.0342 5.625H13.0342C13.0342 7.21095 11.7451 8.5 10.1592 8.5V11.5ZM16.0342 5.625C16.0342 2.3822 13.402 -0.25 10.1592 -0.25V2.75C11.7451 2.75 13.0342 4.03905 13.0342 5.625H16.0342ZM10.1592 4C11.0558 4 11.7842 4.72843 11.7842 5.625H14.7842C14.7842 3.07157 12.7126 1 10.1592 1V4ZM11.7842 5.625C11.7842 6.52157 11.0558 7.25 10.1592 7.25V10.25C12.7126 10.25 14.7842 8.17843 14.7842 5.625H11.7842ZM10.1592 7.25C9.26261 7.25 8.53418 6.52157 8.53418 5.625H5.53418C5.53418 8.17843 7.60575 10.25 10.1592 10.25V7.25ZM8.53418 5.625C8.53418 4.72843 9.26261 4 10.1592 4V1C7.60575 1 5.53418 3.07157 5.53418 5.625H8.53418Z" fill="#979797" mask="url(#path-1-inside-1_1912_6895)"/>
<path fill-rule="evenodd" clip-rule="evenodd" d="M2.65918 17.5H10.1592C10.5042 17.5 10.7842 17.78 10.7842 18.125C10.7842 18.47 10.5042 18.75 10.1592 18.75H2.03418C1.68918 18.75 1.40918 18.47 1.40918 18.125C1.40918 18.125 1.40918 17.6094 1.40918 16.875C1.40918 13.7681 3.9273 11.25 7.03418 11.25H9.9998C10.3448 11.25 10.6248 11.53 10.6248 11.875C10.6248 12.22 10.3448 12.5 9.9998 12.5H7.03418C4.61793 12.5 2.65918 14.4588 2.65918 16.875V17.5Z" fill="#979797"/>
<path fill-rule="evenodd" clip-rule="evenodd" d="M15.625 11.4325C13.5556 11.4325 11.875 13.1125 11.875 15.1825C11.875 17.2519 13.5556 18.9325 15.625 18.9325C17.6944 18.9325 19.375 17.2519 19.375 15.1825C19.375 13.1125 17.6944 11.4325 15.625 11.4325ZM15.625 12.6825C17.005 12.6825 18.125 13.8025 18.125 15.1825C18.125 16.5619 17.005 17.6825 15.625 17.6825C14.245 17.6825 13.125 16.5619 13.125 15.1825C13.125 13.8025 14.245 12.6825 15.625 12.6825Z" fill="#979797"/>
<path fill-rule="evenodd" clip-rule="evenodd" d="M16.25 16.5669V15.2906C16.25 14.9456 15.97 14.6656 15.625 14.6656C15.28 14.6656 15 14.9456 15 15.2906V16.5669C15 16.9119 15.28 17.1919 15.625 17.1919C15.97 17.1919 16.25 16.9119 16.25 16.5669Z" fill="#979797"/>
<path d="M15.625 14.5038C15.9702 14.5038 16.25 14.224 16.25 13.8788C16.25 13.5336 15.9702 13.2538 15.625 13.2538C15.2798 13.2538 15 13.5336 15 13.8788C15 14.224 15.2798 14.5038 15.625 14.5038Z" fill="#979797"/>
</svg>
