<svg width="20" height="20" viewBox="0 0 20 20" fill="none" xmlns="http://www.w3.org/2000/svg">
<path d="M16.7063 3.23744C16.465 3.01664 16.122 2.94305 15.8111 3.04537L2.62201 7.3872C2.26257 7.50551 2.01882 7.82594 2.00103 8.20345C1.98328 8.58099 2.19583 8.92286 2.54253 9.07439L5.8043 10.4996C5.8202 10.5733 6.75656 14.9103 6.78841 15.0577C6.82928 15.2471 6.92552 15.4158 7.1294 15.4676C7.33562 15.5201 7.48131 15.4075 7.63518 15.2925C7.72081 15.2285 10.0557 13.4825 10.0557 13.4825L12.8854 15.795C13.0503 15.9297 13.2517 16 13.4571 16C13.5549 16 13.6536 15.9841 13.7497 15.9515C14.0475 15.8507 14.2683 15.6079 14.3403 15.3022L16.976 4.11119C17.0509 3.79301 16.9476 3.45825 16.7063 3.23744ZM7.84603 11.3162C7.84442 11.32 7.84283 11.3243 7.84134 11.3295L7.29571 13.2332L6.68681 10.4129L10.8738 8.08976L7.94646 11.1465C7.90034 11.1947 7.86642 11.2529 7.84603 11.3162ZM8.0192 13.9062L8.26702 13.0415L8.50407 12.2145L9.35341 12.9086L8.0192 13.9062ZM16.1184 3.90972L13.4827 15.1007C13.4814 15.1063 13.4796 15.114 13.4668 15.1183C13.454 15.1227 13.4478 15.1177 13.4434 15.1141L10.347 12.5837C10.3469 12.5836 10.3468 12.5835 10.3467 12.5835L8.91208 11.4111L13.5212 6.59827C13.6717 6.44107 13.6846 6.19762 13.5515 6.02544C13.4183 5.85323 13.1792 5.80405 12.9889 5.90973L6.16412 9.69649L2.89567 8.26834C2.88571 8.26401 2.88023 8.26158 2.88102 8.24476C2.88181 8.228 2.8875 8.2261 2.89781 8.2227L16.0869 3.8809C16.0933 3.87882 16.1005 3.87642 16.1111 3.88608C16.1217 3.89579 16.12 3.90316 16.1184 3.90972Z" fill="white"/>
</svg>
